<svg xmlns="http://www.w3.org/2000/svg" width="560" height="420" viewBox="0 0 560 420" fill="none"><g stroke="#b8848f" stroke-width="1.15" stroke-linecap="round" stroke-linejoin="round" opacity="0.85"><g transform="translate(150 120) rotate(18) scale(1.0)"><path d="M0 0 C 90 -14 190 -30 300 -34"/><g transform="translate(20.0 -4.0) rotate(-38)"><path d="M0 0 C 22.4 -15.0 48.0 -12.75 64.0 0 C 48.0 12.75 22.4 15.0 0 0 Z"/><path d="M0 0 L 64.0 0"/></g><g transform="translate(34.0 0.0) rotate(34)"><path d="M0 0 C 20.608 -15.0 44.160000000000004 -12.75 58.88 0 C 44.160000000000004 12.75 20.608 15.0 0 0 Z"/><path d="M0 0 L 58.88 0"/></g><g transform="translate(66.66666666666666 -9.0) rotate(-44)"><path d="M0 0 C 21.116666666666667 -14.166666666666666 45.25 -12.041666666666666 60.333333333333336 0 C 45.25 12.041666666666666 21.116666666666667 14.166666666666666 0 0 Z"/><path d="M0 0 L 60.333333333333336 0"/></g><g transform="translate(80.66666666666666 -5.0) rotate(39)"><path d="M0 0 C 19.427333333333333 -14.166666666666666 41.63 -12.041666666666666 55.50666666666667 0 C 41.63 12.041666666666666 19.427333333333333 14.166666666666666 0 0 Z"/><path d="M0 0 L 55.50666666666667 0"/></g><g transform="translate(113.33333333333333 -14.0) rotate(-50)"><path d="M0 0 C 19.833333333333332 -13.333333333333334 42.5 -11.333333333333334 56.666666666666664 0 C 42.5 11.333333333333334 19.833333333333332 13.333333333333334 0 0 Z"/><path d="M0 0 L 56.666666666666664 0"/></g><g transform="translate(127.33333333333333 -10.0) rotate(44)"><path d="M0 0 C 18.246666666666666 -13.333333333333334 39.1 -11.333333333333334 52.13333333333333 0 C 39.1 11.333333333333334 18.246666666666666 13.333333333333334 0 0 Z"/><path d="M0 0 L 52.13333333333333 0"/></g><g transform="translate(160.0 -19.0) rotate(-56)"><path d="M0 0 C 18.549999999999997 -12.5 39.75 -10.625 53.0 0 C 39.75 10.625 18.549999999999997 12.5 0 0 Z"/><path d="M0 0 L 53.0 0"/></g><g transform="translate(174.0 -15.0) rotate(49)"><path d="M0 0 C 17.066 -12.5 36.57000000000001 -10.625 48.760000000000005 0 C 36.57000000000001 10.625 17.066 12.5 0 0 Z"/><path d="M0 0 L 48.760000000000005 0"/></g><g transform="translate(206.66666666666666 -24.0) rotate(-62)"><path d="M0 0 C 17.266666666666666 -11.666666666666668 37.0 -9.916666666666668 49.333333333333336 0 C 37.0 9.916666666666668 17.266666666666666 11.666666666666668 0 0 Z"/><path d="M0 0 L 49.333333333333336 0"/></g><g transform="translate(220.66666666666666 -20.0) rotate(54)"><path d="M0 0 C 15.885333333333334 -11.666666666666668 34.040000000000006 -9.916666666666668 45.38666666666667 0 C 34.040000000000006 9.916666666666668 15.885333333333334 11.666666666666668 0 0 Z"/><path d="M0 0 L 45.38666666666667 0"/></g><g transform="translate(253.33333333333334 -29.0) rotate(-68)"><path d="M0 0 C 15.98333333333333 -10.833333333333332 34.25 -9.208333333333332 45.666666666666664 0 C 34.25 9.208333333333332 15.98333333333333 10.833333333333332 0 0 Z"/><path d="M0 0 L 45.666666666666664 0"/></g><g transform="translate(267.33333333333337 -25.0) rotate(59)"><path d="M0 0 C 14.704666666666666 -10.833333333333332 31.51 -9.208333333333332 42.013333333333335 0 C 31.51 9.208333333333332 14.704666666666666 10.833333333333332 0 0 Z"/><path d="M0 0 L 42.013333333333335 0"/></g><g transform="translate(300.0 -34.0) rotate(-74)"><path d="M0 0 C 14.7 -10.0 31.5 -8.5 42.0 0 C 31.5 8.5 14.7 10.0 0 0 Z"/><path d="M0 0 L 42.0 0"/></g><g transform="translate(314.0 -30.0) rotate(64)"><path d="M0 0 C 13.524 -10.0 28.98 -8.5 38.64 0 C 28.98 8.5 13.524 10.0 0 0 Z"/><path d="M0 0 L 38.64 0"/></g></g><g transform="translate(90 215) rotate(-8) scale(0.82)"><path d="M0 0 C 90 -14 190 -30 300 -34"/><g transform="translate(20.0 -4.0) rotate(-38)"><path d="M0 0 C 22.4 -15.0 48.0 -12.75 64.0 0 C 48.0 12.75 22.4 15.0 0 0 Z"/><path d="M0 0 L 64.0 0"/></g><g transform="translate(34.0 0.0) rotate(34)"><path d="M0 0 C 20.608 -15.0 44.160000000000004 -12.75 58.88 0 C 44.160000000000004 12.75 20.608 15.0 0 0 Z"/><path d="M0 0 L 58.88 0"/></g><g transform="translate(76.0 -10.0) rotate(-44)"><path d="M0 0 C 20.86 -14.0 44.7 -11.9 59.6 0 C 44.7 11.9 20.86 14.0 0 0 Z"/><path d="M0 0 L 59.6 0"/></g><g transform="translate(90.0 -6.0) rotate(39)"><path d="M0 0 C 19.1912 -14.0 41.124 -11.9 54.832 0 C 41.124 11.9 19.1912 14.0 0 0 Z"/><path d="M0 0 L 54.832 0"/></g><g transform="translate(132.0 -16.0) rotate(-50)"><path d="M0 0 C 19.32 -13.0 41.400000000000006 -11.049999999999999 55.2 0 C 41.400000000000006 11.049999999999999 19.32 13.0 0 0 Z"/><path d="M0 0 L 55.2 0"/></g><g transform="translate(146.0 -12.0) rotate(44)"><path d="M0 0 C 17.7744 -13.0 38.08800000000001 -11.049999999999999 50.784000000000006 0 C 38.08800000000001 11.049999999999999 17.7744 13.0 0 0 Z"/><path d="M0 0 L 50.784000000000006 0"/></g><g transform="translate(188.0 -22.0) rotate(-56)"><path d="M0 0 C 17.779999999999998 -12.0 38.099999999999994 -10.2 50.8 0 C 38.099999999999994 10.2 17.779999999999998 12.0 0 0 Z"/><path d="M0 0 L 50.8 0"/></g><g transform="translate(202.0 -18.0) rotate(49)"><path d="M0 0 C 16.357599999999998 -12.0 35.052 -10.2 46.736 0 C 35.052 10.2 16.357599999999998 12.0 0 0 Z"/><path d="M0 0 L 46.736 0"/></g><g transform="translate(244.0 -28.0) rotate(-62)"><path d="M0 0 C 16.24 -11.0 34.8 -9.35 46.4 0 C 34.8 9.35 16.24 11.0 0 0 Z"/><path d="M0 0 L 46.4 0"/></g><g transform="translate(258.0 -24.0) rotate(54)"><path d="M0 0 C 14.9408 -11.0 32.016000000000005 -9.35 42.688 0 C 32.016000000000005 9.35 14.9408 11.0 0 0 Z"/><path d="M0 0 L 42.688 0"/></g><g transform="translate(300.0 -34.0) rotate(-68)"><path d="M0 0 C 14.7 -10.0 31.5 -8.5 42.0 0 C 31.5 8.5 14.7 10.0 0 0 Z"/><path d="M0 0 L 42.0 0"/></g><g transform="translate(314.0 -30.0) rotate(59)"><path d="M0 0 C 13.524 -10.0 28.98 -8.5 38.64 0 C 28.98 8.5 13.524 10.0 0 0 Z"/><path d="M0 0 L 38.64 0"/></g></g><g transform="translate(260 40) rotate(44) scale(0.7)"><path d="M0 0 C 90 -14 190 -30 300 -34"/><g transform="translate(20.0 -4.0) rotate(-38)"><path d="M0 0 C 22.4 -15.0 48.0 -12.75 64.0 0 C 48.0 12.75 22.4 15.0 0 0 Z"/><path d="M0 0 L 64.0 0"/></g><g transform="translate(34.0 0.0) rotate(34)"><path d="M0 0 C 20.608 -15.0 44.160000000000004 -12.75 58.88 0 C 44.160000000000004 12.75 20.608 15.0 0 0 Z"/><path d="M0 0 L 58.88 0"/></g><g transform="translate(90.0 -11.5) rotate(-44)"><path d="M0 0 C 20.474999999999998 -13.75 43.875 -11.6875 58.5 0 C 43.875 11.6875 20.474999999999998 13.75 0 0 Z"/><path d="M0 0 L 58.5 0"/></g><g transform="translate(104.0 -7.5) rotate(39)"><path d="M0 0 C 18.837 -13.75 40.365 -11.6875 53.82 0 C 40.365 11.6875 18.837 13.75 0 0 Z"/><path d="M0 0 L 53.82 0"/></g><g transform="translate(160.0 -19.0) rotate(-50)"><path d="M0 0 C 18.549999999999997 -12.5 39.75 -10.625 53.0 0 C 39.75 10.625 18.549999999999997 12.5 0 0 Z"/><path d="M0 0 L 53.0 0"/></g><g transform="translate(174.0 -15.0) rotate(44)"><path d="M0 0 C 17.066 -12.5 36.57000000000001 -10.625 48.760000000000005 0 C 36.57000000000001 10.625 17.066 12.5 0 0 Z"/><path d="M0 0 L 48.760000000000005 0"/></g><g transform="translate(230.0 -26.5) rotate(-56)"><path d="M0 0 C 16.625 -11.25 35.625 -9.5625 47.5 0 C 35.625 9.5625 16.625 11.25 0 0 Z"/><path d="M0 0 L 47.5 0"/></g><g transform="translate(244.0 -22.5) rotate(49)"><path d="M0 0 C 15.295 -11.25 32.775000000000006 -9.5625 43.7 0 C 32.775000000000006 9.5625 15.295 11.25 0 0 Z"/><path d="M0 0 L 43.7 0"/></g><g transform="translate(300.0 -34.0) rotate(-62)"><path d="M0 0 C 14.7 -10.0 31.5 -8.5 42.0 0 C 31.5 8.5 14.7 10.0 0 0 Z"/><path d="M0 0 L 42.0 0"/></g><g transform="translate(314.0 -30.0) rotate(54)"><path d="M0 0 C 13.524 -10.0 28.98 -8.5 38.64 0 C 28.98 8.5 13.524 10.0 0 0 Z"/><path d="M0 0 L 38.64 0"/></g></g></g></svg>